<svg width="24" height="24" viewBox="0 0 24 24" fill="none" xmlns="http://www.w3.org/2000/svg">
  <path d="M6 6C6 4.89543 6.89543 4 8 4H16C17.1046 4 18 4.89543 18 6V18C18 19.1046 17.1046 20 16 20H8C6.89543 20 6 19.1046 6 18V6Z" fill="#107C10"/>
  <path d="M8 6H16V18H8V6Z" fill="white"/>
  <path d="M10 8H14V10H10V8Z" fill="#107C10"/>
  <path d="M10 12H14V14H10V12Z" fill="#107C10"/>
  <path d="M10 16H14V18H10V16Z" fill="#107C10"/>
  <circle cx="9" cy="9" r="0.5" fill="#107C10"/>
  <circle cx="15" cy="9" r="0.5" fill="#107C10"/>
  <circle cx="9" cy="15" r="0.5" fill="#107C10"/>
  <circle cx="15" cy="15" r="0.5" fill="#107C10"/>
</svg>
